# xmcd
#
# Track frame offsets:
#	150
#	25447
#	48155
#	82230
#	102307
#	128630
#	149395
#	179902
#	193742
#	233665
#	258925
#	287049
#
# Disc length: 4250
#
# Revision: 1
# Processed by: cddbd v1.5.1PL0 Copyright (c) Steve Scherf et al.
# Submitted via: CDex 1.51
# Normalized: r0:TRMNUM
#
DISCID=b110980c
DTITLE=Gary Moore - Blues Alive
DYEAR=1993
DGENRE=Blues
TTITLE0=Cold Day In Hell
TTITLE1=Walking By Myself
TTITLE2=Story Of The Blues
TTITLE3=Oh, Pretty Woman  
TTITLE4=Separate Ways  
TTITLE5=Too Tired
TTITLE6=Still Got The Blues (For You)  
TTITLE7=Since I Met You Baby
TTITLE8=The Sky Is Crying 
TTITLE9=Further On Up The Road 
TTITLE10=King Of The Blues  
TTITLE11=Parisienne Walkways
EXTD=YEAR: 1993
EXTT0=
EXTT1=
EXTT2=
EXTT3=
EXTT4=
EXTT5=
EXTT6=
EXTT7=
EXTT8=
EXTT9=
EXTT10=
EXTT11=
PLAYORDER=
